<?xml version="1.0" encoding="UTF-8" standalone="no"?>
<!-- Created with Inkscape (http://www.inkscape.org/) -->

<svg
   width="1080"
   height="1080"
   viewBox="0 0 1080 1080"
   version="1.1"
   id="svg1"
   xml:space="preserve"
   xmlns="http://www.w3.org/2000/svg"
   xmlns:svg="http://www.w3.org/2000/svg"><defs
     id="defs1" /><g
     id="layer1"
     style="fill:#ffffff"><path
       id="path2"
       style="display:inline;opacity:1;fill:#ffffff;stroke:none;stroke-width:31.6789;stroke-dasharray:none"
       d="m 251.28125,67.591797 v 463.320313 36.9043 l 4.06641,-6.12696 c 9.73229,-14.66231 17.29856,-31.13914 28.16211,-61.32226 11.98953,-33.31161 37.50378,-57.31636 66.34335,-62.23599 30.76885,-5.24874 30.61109,-6.32456 48.76407,-6.32456 h 27.79297 l 17.80273,-18.08594 c 18.50654,-18.8005 47.0085,-41.10455 72.78516,-56.95703 53.82078,-33.09942 137.46411,-63.12886 194.38672,-69.78906 l 12.27539,-1.43555 -1.25,17.96485 c -3.96879,57.03899 -25.05884,95.06729 -66.14844,119.27148 -24.70215,14.55102 -80.70398,30.45703 -107.23047,30.45703 -5.13091,0 -10.45498,2.95624 -21.22852,11.78711 -9.66273,7.9204 -17.03691,12.2125 -22.47461,13.08203 -13.45896,2.15217 -14.09899,3.11592 -11.06835,16.65821 2.30509,10.30034 2.18694,12.87645 -0.88477,19.34961 -1.94886,4.10688 -2.97313,8.38783 -2.27734,9.51367 0.70071,1.13371 6.75921,1.55411 13.58203,0.9414 15.86949,-1.42517 27.95966,1.94384 40.02343,11.15235 9.60147,7.32893 9.7482,7.36226 22.04688,5.05078 15.14512,-2.84642 46.38732,-1.07174 63.80078,3.625 34.45176,9.29232 69.81645,31.45851 100.03125,62.69726 32.48329,33.58412 54.36843,71.59367 65.26953,113.35938 7.55938,28.9626 7.98266,64.88448 1.05469,89.38672 -13.32175,47.11511 -44.94449,83.6365 -94.65039,109.30859 -41.39579,21.3801 -26.40021,19.68786 -190.12695,21.44531 l -144.13086,1.54688 2.64843,-6.09961 c 7.68904,-17.7113 14.78577,-21.54872 54.23633,-29.33203 44.02572,-8.68599 72.49432,-12.29725 107.64844,-13.65039 29.64376,-1.141 32.67383,-1.61679 32.67383,-5.13672 0,-2.76856 -2.60765,-4.5493 -9.10547,-6.2207 -49.63873,-12.76849 -82.71426,-32.62652 -86.26953,-51.79493 -2.11321,-11.39333 6.51855,-29.01818 21.26172,-43.41211 21.20423,-20.70194 65.29333,-46.70064 107.32226,-63.28711 19.68605,-7.76899 23.29701,-8.02078 20.70991,-12.20683 -1.58915,-2.57126 -23.47792,6.71999 -40.21936,14.7471 -26.40163,12.65892 -32.81995,15.68653 -91.45179,53.92712 -8.64994,5.64162 -27.36512,-7.36811 -33.73605,-13.17924 -19.19763,-17.51076 -21.0464,-51.51361 -47.34958,-58.25494 l 5.8457,-5.0293 c 3.37134,-2.89991 5.19336,-6.08358 4.30469,-7.52148 -4.09293,-6.62249 -7.74037,1.83076 -41.46607,35.48259 -34.7013,34.62534 -38.65691,31.71568 -40.02807,42.98811 -0.75828,6.23389 -2.37254,13.51815 -3.58789,16.18555 -2.46282,5.4053 -9.70934,10.69918 -12.38282,9.04687 -2.7174,-1.67944 -7.36695,-38.47747 -6.18554,-48.95898 1.44557,-12.82497 30.57673,-71.58414 44.63281,-90.02735 6.11028,-8.01738 17.77797,-19.96412 25.92773,-26.54882 8.14978,-6.58472 14.45489,-13.03982 14.01172,-14.34571 -0.5625,-1.65751 -12.06824,-2.13145 -38.10742,-1.57031 -23.74896,0.51178 -41.76754,-0.12554 -49.5957,-1.75391 -13.80301,-2.87121 -29.88707,-12.80961 -49.7461,-30.73632 l -8.70898,-7.86133 v 416.64648 h 170.11523 c 188.91299,0 225.09654,-3.88456 281.36719,-30.2168 55.86275,-26.14132 96.66199,-73.23044 117.53906,-131.89453 -6.44123,7.93662 -15.62886,16.06839 -27.71875,24.40235 -3.44942,2.3778 -6.62634,4.32226 -7.06054,4.32226 -0.43419,0 3.05509,-7.82802 7.7539,-17.39648 10.1321,-20.6325 14.3592,-35.69119 15.9375,-56.7832 l 1.16016,-15.52735 7.5957,7.41602 c 6.14639,6.00179 10.15717,12.16343 12.08203,18.47851 5.44778,-26.27447 7.31641,-54.22467 5.07813,-83.25 -8.10205,-105.06547 -66.66196,-177.27235 -161.52734,-199.16992 -13.85528,-3.19818 -25.19141,-7.34566 -25.19141,-9.2168 0,-1.87112 8.67853,-6.26707 19.28516,-9.76757 45.76841,-15.10494 87.57367,-57.95245 108.91406,-111.63086 9.7225,-24.45538 11.41234,-38.22836 11.33594,-92.38282 -0.099,-70.16143 -5.48183,-91.5922 -33.25586,-132.3789 C 723.10668,112.85346 667.76166,83.840327 590.32812,73.070312 568.66423,70.057142 483.51527,67.591797 401.10938,67.591797 Z M 646.42773,259.44531 c 6.29528,-0.15624 11.60918,0.50409 12.21094,2.07227 1.21858,3.17553 -3.25149,13.07751 -9.64258,21.35742 l -5.92968,7.68359 -20.50391,6.74024 c -26.72997,8.78735 -45.98026,16.6219 -70.93945,28.87305 -47.31526,23.22454 -85.05169,49.70284 -116.29102,81.59765 -7.8254,7.9896 -15.03274,14.41335 -16.01758,14.27539 -0.98482,-0.13797 -7.84549,-0.57029 -15.24609,-0.96094 l -13.45703,-0.71093 5.6582,-6.13867 c 3.11138,-3.37625 8.92359,-8.15487 12.91602,-10.61915 6.45538,-3.98448 7.49684,-5.23367 9.40625,-11.29101 12.45404,-39.50879 106.79425,-106.27106 174.98437,-123.83203 3.0877,-0.79518 10.58325,-1.92576 16.65821,-2.51367 6.07495,-0.58792 14.21724,-2.25746 18.09374,-3.70899 4.52802,-1.69549 11.80435,-2.66798 18.09961,-2.82422 z M 381.52148,468.68555 c -9.29711,0.0322 -20.61994,2.09598 -28.71875,6.17383 -8.36166,4.21019 -23.27148,22.61307 -23.27148,28.72265 0,3.30127 1.599,3.54635 14.46094,2.22266 7.95399,-0.81859 18.7901,-2.54857 24.08008,-3.84571 6.97377,-1.70996 12.42277,-5.2373 19.81835,-12.83007 5.60996,-5.75952 10.19922,-12.25116 10.19922,-14.42579 0,-4.04979 -7.27123,-6.04977 -16.56836,-6.01757 z m 20.07237,244.70676 c 0.81,0.0225 -1.0691,7.58829 -1.72188,10.98217 -1.63785,8.51528 -12.87156,24.4781 -23.7372,33.06693 -5.36515,4.24088 -11.37724,8.22574 -13.36133,8.85547 -1.9841,0.62971 -5.54809,4.59629 -7.91992,8.8164 -2.37185,4.22013 -5.81058,8.90893 -7.64063,10.41797 -3.0624,2.52523 -3.22483,1.87901 -2.04883,-8.11914 1.26153,-10.72533 1.588,-11.17465 25.67774,-35.34961 16.16226,-16.21944 28.68205,-28.72766 30.75205,-28.67019 z M 502.60718,881.0588 c 5.72504,-0.0479 37.16199,5.91679 35.68963,6.46868 -4.10364,1.5382 -32.24889,1.67921 -34.65871,1.92233 -21.14978,2.13374 -55.21762,6.03326 -81.53458,9.65566 -6.12716,0.84337 -11.43942,2.25413 -11.93555,2.34961 -0.49613,0.0955 0.22012,-0.20633 1.44336,-0.94531 29.29434,-17.69727 59.88681,-19.19088 90.99585,-19.45097 z" /></g></svg>
